<svg xmlns="http://www.w3.org/2000/svg" viewBox="0 0 820 600" font-family="ui-sans-serif, system-ui, sans-serif" role="img" aria-label="The multi-host shape for remote terminals. The browser drives kolu-server over one WebSocket. kolu-server holds the TerminalEndpoint seam keyed by hostId, behind which sit three drivers — the shipped local driver (R2), the remaining ssh driver (R3), and the remaining awareness fold (R4). On this machine a local kaval daemon owns the PTYs and survives deploys, with awareness run in-process. Each remote ssh host runs the same kaval daemon plus an arivu awareness daemon served over ssh. Green = shipped, amber = remaining.">
  <defs>
    <marker id="rt-arr-green" viewBox="0 0 10 10" refX="9" refY="5" markerWidth="7" markerHeight="7" orient="auto-start-reverse">
      <path d="M0 0 L10 5 L0 10 z" fill="#15803D"/>
    </marker>
    <marker id="rt-arr-amber" viewBox="0 0 10 10" refX="9" refY="5" markerWidth="7" markerHeight="7" orient="auto-start-reverse">
      <path d="M0 0 L10 5 L0 10 z" fill="#B45309"/>
    </marker>
    <marker id="rt-arr-slate" viewBox="0 0 10 10" refX="9" refY="5" markerWidth="7" markerHeight="7" orient="auto-start-reverse">
      <path d="M0 0 L10 5 L0 10 z" fill="#475569"/>
    </marker>
    <style>
      .rt-paper  { fill:#ffffff; }
      .rt-title  { fill:#0f172a; font-size:16px; font-weight:700; }
      .rt-sub    { fill:#64748b; font-size:11.5px; }
      .rt-tier   { fill:#94a3b8; font-size:10.5px; font-weight:700; letter-spacing:0.07em; }
      .rt-mono   { font-family:ui-monospace, "SF Mono", Menlo, monospace; }

      .rt-srv-box   { fill:#EDF0FD; stroke:#0D32B2; stroke-width:2; }
      .rt-srv-inner { fill:#F7F9FF; stroke:#9DB0EE; stroke-width:1.5; }
      .rt-srv-t     { fill:#0A0F25; font-size:13.5px; font-weight:700; }
      .rt-srv-s     { fill:#4A5072; font-size:11px; }

      .rt-cli-box { fill:#EEF0F2; stroke:#94A3B8; stroke-width:2; }
      .rt-cli-t   { fill:#334155; font-size:13px; font-weight:700; }
      .rt-cli-s   { fill:#64748B; font-size:11px; }
      .rt-host    { fill:#F8FAFC; stroke:#CBD5E1; stroke-width:1.5; }

      .rt-green-box { fill:#E6F4EA; stroke:#15803D; stroke-width:2; }
      .rt-green-t   { fill:#14532D; font-size:13px; font-weight:700; }
      .rt-green-s   { fill:#166534; font-size:11px; }
      .rt-green-e   { stroke:#15803D; stroke-width:2; fill:none; }

      .rt-amber-box { fill:#FBF1DC; stroke:#B45309; stroke-width:2; }
      .rt-amber-t   { fill:#7a4f00; font-size:13px; font-weight:700; }
      .rt-amber-s   { fill:#92400E; font-size:11px; }
      .rt-amber-e   { stroke:#B45309; stroke-width:2; fill:none; stroke-dasharray:6 4; }

      .rt-slate-e { stroke:#475569; stroke-width:2; fill:none; }
      .rt-elabel  { fill:#475569; font-size:10.5px; font-weight:600; }

      .rt-pill-g  { fill:#15803D; }
      .rt-pill-a  { fill:#B45309; }
      .rt-pill-tx { fill:#ffffff; font-size:10.5px; font-weight:700; }
    </style>
  </defs>

  <rect class="rt-paper" x="0" y="0" width="820" height="600"/>

  <text class="rt-title" x="32" y="34">Remote terminals — the multi-host shape</text>
  <text class="rt-sub" x="32" y="53">one kaval daemon per host · kolu-server keys every endpoint by hostId · colour = shipped vs remaining</text>

  <!-- legend -->
  <rect class="rt-green-box" x="566" y="22" width="14" height="14" rx="3"/>
  <text class="rt-sub" x="586" y="33">shipped — R1 · R2</text>
  <rect class="rt-amber-box" x="566" y="42" width="14" height="14" rx="3"/>
  <text class="rt-sub" x="586" y="53">remaining — R3 · R4 · R5</text>

  <!-- ================= browser ================= -->
  <rect class="rt-cli-box" x="290" y="74" width="240" height="48" rx="10"/>
  <text class="rt-cli-t" x="410" y="96" text-anchor="middle">browser — SolidJS client</text>
  <text class="rt-cli-s" x="410" y="113" text-anchor="middle">ChromeBar host switcher</text>

  <path class="rt-slate-e" d="M410 122 L410 150" marker-end="url(#rt-arr-slate)"/>
  <text class="rt-elabel" x="420" y="140">WebSocket · oRPC</text>

  <!-- ================= kolu-server ================= -->
  <rect class="rt-srv-box" x="70" y="150" width="680" height="178" rx="12"/>
  <text class="rt-srv-t" x="88" y="174">kolu-server <tspan class="rt-srv-s">— restarts every deploy</tspan></text>

  <rect class="rt-srv-inner" x="92" y="184" width="636" height="34" rx="8"/>
  <text class="rt-srv-s rt-mono" x="410" y="205" text-anchor="middle">TerminalEndpoint seam · keyed by hostId · awareness sensors (fresh each deploy)</text>

  <!-- local driver (shipped) -->
  <rect class="rt-green-box" x="92" y="232" width="200" height="80" rx="10"/>
  <rect class="rt-pill-g" x="104" y="244" width="34" height="17" rx="8.5"/>
  <text class="rt-pill-tx" x="121" y="256" text-anchor="middle">R2 ✓</text>
  <text class="rt-green-t" x="146" y="257">local driver</text>
  <text class="rt-green-s" x="104" y="280">spawn · supervise · adopt</text>
  <text class="rt-green-s rt-mono" x="104" y="297">localDriver.ts</text>

  <!-- ssh driver (remaining) -->
  <rect class="rt-amber-box" x="312" y="232" width="196" height="80" rx="10"/>
  <rect class="rt-pill-a" x="324" y="244" width="26" height="17" rx="8.5"/>
  <text class="rt-pill-tx" x="337" y="256" text-anchor="middle">R3</text>
  <text class="rt-amber-t" x="358" y="257">ssh driver</text>
  <text class="rt-amber-s" x="324" y="280">reach · provision · multiplex</text>
  <text class="rt-amber-s rt-mono" x="324" y="297">surface-nix-host</text>

  <!-- awareness fold (remaining) -->
  <rect class="rt-amber-box" x="528" y="232" width="200" height="80" rx="10"/>
  <rect class="rt-pill-a" x="540" y="244" width="26" height="17" rx="8.5"/>
  <text class="rt-pill-tx" x="553" y="256" text-anchor="middle">R4</text>
  <text class="rt-amber-t" x="574" y="257">awareness fold</text>
  <text class="rt-amber-s" x="540" y="280">mirror arivu · split fence</text>
  <text class="rt-amber-s rt-mono" x="540" y="297">updateServer(Live)Metadata</text>

  <!-- ================= host tier ================= -->
  <text class="rt-tier" x="32" y="356">HOSTS — same hashed kaval daemon on every one</text>

  <!-- this machine -->
  <rect class="rt-host" x="70" y="368" width="320" height="200" rx="12"/>
  <text class="rt-cli-t" x="88" y="392">this machine</text>
  <rect class="rt-green-box" x="92" y="404" width="276" height="142" rx="10"/>
  <text class="rt-green-t" x="110" y="432">kaval ✓</text>
  <text class="rt-green-s" x="110" y="454">durable PTY · holds the fds + screen mirror</text>
  <text class="rt-green-s" x="110" y="472">survives a kolu-server deploy</text>
  <text class="rt-green-s" x="110" y="512">awareness: run in-process in kolu-server</text>
  <text class="rt-green-s" x="110" y="528">(no separate daemon locally)</text>

  <!-- remote ssh host -->
  <rect class="rt-host" x="430" y="368" width="320" height="200" rx="12"/>
  <text class="rt-cli-t" x="448" y="392">remote ssh host <tspan class="rt-cli-s">×N</tspan></text>
  <rect class="rt-green-box" x="452" y="404" width="138" height="142" rx="10"/>
  <text class="rt-green-t" x="470" y="432">kaval</text>
  <text class="rt-green-s" x="470" y="454">same daemon</text>
  <text class="rt-green-s" x="470" y="472">PTYs survive</text>
  <text class="rt-green-s" x="470" y="490">blips + deploys</text>
  <rect class="rt-amber-box" x="600" y="404" width="130" height="142" rx="10"/>
  <text class="rt-amber-t" x="618" y="432">arivu</text>
  <text class="rt-amber-s" x="618" y="454">sensors</text>
  <text class="rt-amber-s" x="618" y="472">host-side</text>
  <text class="rt-amber-s" x="618" y="490">served / ssh</text>

  <!-- edges server → hosts -->
  <path class="rt-green-e" d="M180 312 L180 404" marker-end="url(#rt-arr-green)"/>
  <text class="rt-elabel" x="188" y="362">unix socket</text>

  <path class="rt-amber-e" d="M410 312 L410 344 L521 344 L521 404" marker-end="url(#rt-arr-amber)"/>
  <text class="rt-elabel" x="430" y="338">ssh stdio</text>

  <path class="rt-amber-e" d="M628 312 L628 344 L665 344 L665 404" marker-end="url(#rt-arr-amber)"/>
  <text class="rt-elabel" x="640" y="338">ssh · mirror</text>
</svg>
